<?xml version="1.0" encoding="UTF-8"?>
<svg id="FORBEREDTE" xmlns="http://www.w3.org/2000/svg" viewBox="0 0 1391.59 159.2">
  <defs>
    <style>
      .cls-1 {
        fill: #fff;
      }
    </style>
  </defs>
  <g id="TYPO">
    <path d="M86.4,37.4h-47.2v25.2h43v33.2h-43v59.2H0V4.2h86.4v33.2Z"/>
    <path d="M113.8,79.6c0-11.2,2.07-21.63,6.2-31.3,4.13-9.67,9.87-18.1,17.2-25.3,7.33-7.2,16.1-12.83,26.3-16.9,10.2-4.07,21.43-6.1,33.7-6.1s23.33,2.03,33.6,6.1c10.27,4.07,19.1,9.7,26.5,16.9s13.17,15.63,17.3,25.3c4.13,9.67,6.2,20.1,6.2,31.3s-2.07,21.63-6.2,31.3c-4.13,9.67-9.9,18.1-17.3,25.3s-16.23,12.83-26.5,16.9c-10.27,4.07-21.47,6.1-33.6,6.1s-23.5-2.03-33.7-6.1c-10.2-4.07-18.97-9.7-26.3-16.9-7.33-7.2-13.07-15.63-17.2-25.3-4.13-9.67-6.2-20.1-6.2-31.3Z"/>
    <path d="M442,155h-48.8l-37.4-58v58h-39.2V4.2h61c8.4,0,15.73,1.23,22,3.7,6.27,2.47,11.43,5.83,15.5,10.1,4.07,4.27,7.13,9.2,9.2,14.8,2.07,5.6,3.1,11.6,3.1,18,0,11.47-2.77,20.77-8.3,27.9-5.53,7.13-13.7,11.97-24.5,14.5l47.4,61.8ZM355.8,71.6h7.4c7.73,0,13.67-1.6,17.8-4.8,4.13-3.2,6.2-7.8,6.2-13.8s-2.07-10.6-6.2-13.8c-4.13-3.2-10.07-4.8-17.8-4.8h-7.4v37.2Z"/>
    <path d="M469.4,4.2h58.4c13.87,0,24.4,3.33,31.6,10,7.2,6.67,10.8,16.27,10.8,28.8,0,7.6-1.37,13.9-4.1,18.9-2.73,5-6.9,9.23-12.5,12.7,5.6,1.07,10.37,2.7,14.3,4.9,3.93,2.2,7.13,4.9,9.6,8.1,2.47,3.2,4.23,6.8,5.3,10.8,1.07,4,1.6,8.27,1.6,12.8,0,7.07-1.23,13.33-3.7,18.8-2.47,5.47-5.93,10.07-10.4,13.8-4.47,3.73-9.9,6.53-16.3,8.4-6.4,1.87-13.6,2.8-21.6,2.8h-63V4.2ZM508.6,63.4h7.2c12.27,0,18.4-4.87,18.4-14.6s-6.13-14.6-18.4-14.6h-7.2v29.2ZM508.6,124.6h8.6c9.87,0,16.93-1.27,21.2-3.8,4.27-2.53,6.4-6.6,6.4-12.2s-2.13-9.67-6.4-12.2c-4.27-2.53-11.33-3.8-21.2-3.8h-8.6v32Z"/>
    <path d="M704.6,37.4h-46.6v25.2h44v33.2h-44v26h46.6v33.2h-85.8V4.2h85.8v33.2Z"/>
    <path d="M869.19,155h-48.8l-37.4-58v58h-39.2V4.2h61c8.4,0,15.73,1.23,22,3.7,6.27,2.47,11.43,5.83,15.5,10.1,4.07,4.27,7.13,9.2,9.2,14.8,2.06,5.6,3.1,11.6,3.1,18,0,11.47-2.77,20.77-8.3,27.9-5.53,7.13-13.7,11.97-24.5,14.5l47.4,61.8ZM782.99,71.6h7.4c7.73,0,13.67-1.6,17.8-4.8,4.13-3.2,6.2-7.8,6.2-13.8s-2.07-10.6-6.2-13.8c-4.13-3.2-10.07-4.8-17.8-4.8h-7.4v37.2Z"/>
    <path d="M982.39,37.4h-46.6v25.2h44v33.2h-44v26h46.6v33.2h-85.8V4.2h85.8v33.2Z"/>
    <path d="M1021.59,4.2h58c10.27,0,19.9,2.07,28.9,6.2,9,4.13,16.87,9.63,23.6,16.5,6.73,6.87,12.03,14.87,15.9,24,3.87,9.13,5.8,18.7,5.8,28.7s-1.9,19.37-5.7,28.5c-3.8,9.13-9.07,17.17-15.8,24.1-6.73,6.93-14.6,12.47-23.6,16.6-9,4.13-18.7,6.2-29.1,6.2h-58V4.2ZM1060.79,121.8h9c6.8,0,12.87-1.07,18.2-3.2,5.33-2.13,9.83-5.07,13.5-8.8,3.66-3.73,6.46-8.17,8.4-13.3,1.93-5.13,2.9-10.77,2.9-16.9s-1-11.6-3-16.8-4.83-9.67-8.5-13.4c-3.67-3.73-8.17-6.67-13.5-8.8-5.33-2.13-11.33-3.2-18-3.2h-9v84.4Z"/>
    <path d="M1245.19,37.4v117.6h-39.2V37.4h-32.2V4.2h103.6v33.2h-32.2Z"/>
    <path d="M1391.59,37.4h-46.6v25.2h44v33.2h-44v26h46.6v33.2h-85.8V4.2h85.8v33.2Z"/>
  </g>
  <path id="OJEFARVE" class="cls-1" d="M280.82,79.54c-11.87,22.37-44.77,38.46-83.5,38.46s-71.63-16.09-83.5-38.46c11.88-22.37,44.78-38.45,83.5-38.45s71.62,16.08,83.5,38.45Z"/>
  <circle cx="234.57" cy="74.54" r="31.49"/>
</svg>