<?xml version="1.0" encoding="UTF-8"?>
<svg id="Layer_1" data-name="Layer 1" xmlns="http://www.w3.org/2000/svg" viewBox="0 0 1110.38 201.92">
  <defs>
    <style>
      .cls-1 {
        fill: #c75000;
        stroke: #000;
        stroke-width: 18px;
      }

      .cls-2 {
        fill: #556b2f;
        stroke: #fff;
        stroke-width: 5px;
      }

      .cls-3 {
        font-family: Alfarn, Alfarn;
        font-size: 97.18px;
        letter-spacing: -.04em;
      }
    </style>
  </defs>
  <text class="cls-3" transform="translate(364.63 72.93)"><tspan x="0" y="0">FOR DE</tspan></text>
  <g>
    <path class="cls-1" d="M53.12,113.64v10.55h55.85v27.12h-55.85v37.82H18.82v-102.61h90.15v27.12h-55.85Z"/>
    <path class="cls-1" d="M116.31,137.69c0-29.17,23.75-52.77,52.92-52.77s52.92,23.6,52.92,52.77-23.75,52.92-52.92,52.92-52.92-23.6-52.92-52.92ZM188.13,137.69c0-10.41-8.5-18.91-18.91-18.91s-18.91,8.5-18.91,18.91,8.5,19.06,18.91,19.06,18.91-8.5,18.91-19.06Z"/>
    <path class="cls-1" d="M280.63,151.17h-16.12v37.97h-34.3v-102.61h72.56c20.82,0,33.42,12.02,33.42,32.54,0,13.63-9.09,24.63-21.26,29.47l24.63,40.61h-37.23l-21.7-37.97ZM264.51,124.35h31.81c3.23,0,5.57-2.2,5.57-5.57,0-3.66-2.35-5.28-5.57-5.28h-31.81v10.85Z"/>
    <path class="cls-1" d="M446.87,137.39c3.81,5.28,6.16,12.02,6.16,19.2,0,20.52-12.75,32.54-33.57,32.54h-73.3v-102.61h73.3c20.82,0,33.57,11.87,33.57,32.4,0,6.89-2.35,13.34-6.16,18.47ZM380.46,113.35v11.14h34.01c3.23,0,5.57-2.2,5.57-5.72s-2.35-5.42-5.57-5.42h-34.01ZM420.04,156.6c0-3.52-2.35-5.57-5.57-5.57h-34.01v11.29h34.01c3.23,0,5.57-2.2,5.57-5.72Z"/>
    <path class="cls-1" d="M497.58,113.5v10.7h56.29v27.12h-56.29v10.85h56.29v26.97h-90.59v-102.61h90.59v26.97h-56.29Z"/>
    <path class="cls-1" d="M614.56,151.17h-16.12v37.97h-34.3v-102.61h72.56c20.82,0,33.42,12.02,33.42,32.54,0,13.63-9.09,24.63-21.26,29.47l24.63,40.61h-37.23l-21.7-37.97ZM598.44,124.35h31.81c3.23,0,5.57-2.2,5.57-5.57,0-3.66-2.35-5.28-5.57-5.28h-31.81v10.85Z"/>
    <path class="cls-1" d="M715.86,113.5v10.7h56.29v27.12h-56.29v10.85h56.29v26.97h-90.59v-102.61h90.59v26.97h-56.29Z"/>
    <path class="cls-1" d="M893.96,137.1c0,33.72-28.88,52.04-50.43,52.04h-61.13v-102.61h62.3c25.21,0,49.25,19.2,49.25,50.57ZM859.37,136.95c0-16.56-10.41-23.31-26.24-23.31h-16.42v48.38h17.59c14.37,0,25.07-9.67,25.07-25.07Z"/>
    <path class="cls-1" d="M928.12,113.64h-30.49v-27.12h95.28v27.12h-30.49v75.49h-34.3v-75.49Z"/>
    <path class="cls-1" d="M1035.27,113.5v10.7h56.29v27.12h-56.29v10.85h56.29v26.97h-90.59v-102.61h90.59v26.97h-56.29Z"/>
  </g>
  <g>
    <path class="cls-2" d="M53.12,113.72v10.55h55.85v27.12h-55.85v37.82H18.82v-102.61h90.15v27.12h-55.85Z"/>
    <path class="cls-2" d="M116.3,137.76c0-29.17,23.75-52.77,52.92-52.77s52.92,23.6,52.92,52.77-23.75,52.92-52.92,52.92-52.92-23.6-52.92-52.92ZM188.13,137.76c0-10.41-8.5-18.91-18.91-18.91s-18.91,8.5-18.91,18.91,8.5,19.06,18.91,19.06,18.91-8.5,18.91-19.06Z"/>
    <path class="cls-2" d="M280.63,151.25h-16.12v37.97h-34.3v-102.61h72.56c20.82,0,33.42,12.02,33.42,32.54,0,13.63-9.09,24.63-21.26,29.47l24.63,40.61h-37.23l-21.7-37.97ZM264.51,124.42h31.81c3.23,0,5.57-2.2,5.57-5.57,0-3.66-2.35-5.28-5.57-5.28h-31.81v10.85Z"/>
    <path class="cls-2" d="M446.86,137.47c3.81,5.28,6.16,12.02,6.16,19.2,0,20.52-12.75,32.54-33.57,32.54h-73.3v-102.61h73.3c20.82,0,33.57,11.87,33.57,32.4,0,6.89-2.35,13.34-6.16,18.47ZM380.46,113.42v11.14h34.01c3.23,0,5.57-2.2,5.57-5.72s-2.35-5.42-5.57-5.42h-34.01ZM420.04,156.67c0-3.52-2.35-5.57-5.57-5.57h-34.01v11.29h34.01c3.23,0,5.57-2.2,5.57-5.72Z"/>
    <path class="cls-2" d="M497.58,113.57v10.7h56.29v27.12h-56.29v10.85h56.29v26.97h-90.59v-102.61h90.59v26.97h-56.29Z"/>
    <path class="cls-2" d="M614.56,151.25h-16.12v37.97h-34.3v-102.61h72.56c20.82,0,33.42,12.02,33.42,32.54,0,13.63-9.09,24.63-21.26,29.47l24.63,40.61h-37.23l-21.7-37.97ZM598.44,124.42h31.81c3.23,0,5.57-2.2,5.57-5.57,0-3.66-2.35-5.28-5.57-5.28h-31.81v10.85Z"/>
    <path class="cls-2" d="M715.85,113.57v10.7h56.29v27.12h-56.29v10.85h56.29v26.97h-90.59v-102.61h90.59v26.97h-56.29Z"/>
    <path class="cls-2" d="M893.96,137.17c0,33.72-28.88,52.04-50.43,52.04h-61.13v-102.61h62.3c25.21,0,49.25,19.2,49.25,50.57ZM859.36,137.03c0-16.56-10.41-23.31-26.24-23.31h-16.42v48.38h17.59c14.37,0,25.07-9.67,25.07-25.07Z"/>
    <path class="cls-2" d="M928.12,113.72h-30.49v-27.12h95.28v27.12h-30.49v75.49h-34.3v-75.49Z"/>
    <path class="cls-2" d="M1035.27,113.57v10.7h56.29v27.12h-56.29v10.85h56.29v26.97h-90.59v-102.61h90.59v26.97h-56.29Z"/>
  </g>
</svg>