<?xml version="1.0" encoding="UTF-8"?>
<svg xmlns="http://www.w3.org/2000/svg" viewBox="0 0 735.64 947.4">
  <defs>
    <style>
      .cls-1 {
        fill: #c75000;
      }

      .cls-2 {
        fill: none;
        stroke: #c75000;
        stroke-miterlimit: 10;
        stroke-width: 30px;
      }

      .cls-3 {
        fill: #1f1f1f;
      }
    </style>
  </defs>
  <g id="insignia">
    <path class="cls-3" d="M673.56,121.5v588.32l-305.74,166.44L62.09,709.82V121.5s70.93-29.75,134.14-45.55c63.21-15.8,171.59-15.8,171.59-15.8,0,0,108.39,0,171.59,15.8,63.21,15.8,134.15,45.55,134.15,45.55Z"/>
    <path class="cls-3" d="M367.82,30s119.77,0,189.6,16.97c69.84,16.97,148.23,48.92,148.23,48.92v631.79l-337.82,185.5L30,727.68V95.88s78.37-31.95,148.22-48.92c69.84-16.97,189.6-16.97,189.6-16.97M367.82,0c-5.04,0-124.18.2-196.68,17.82C99.94,35.11,21.96,66.76,18.68,68.1L0,75.72v669.71l15.56,8.54,337.82,185.5,14.44,7.93,14.44-7.93,337.82-185.5,15.56-8.54V75.71l-18.68-7.61c-3.29-1.34-81.27-32.99-152.47-50.29C492.01.2,372.85,0,367.82,0h0Z"/>
  </g>
  <g id="hus_lås">
    <g id="hus_lås_gruppe">
      <path class="cls-2" d="M237.23,395.89v-90.48s-7.59-133.62,130.6-133.62"/>
      <path class="cls-2" d="M498.42,395.89v-90.48s7.59-133.62-130.59-133.62"/>
      <path class="cls-1" d="M367.82,257.73l-233.51,206.02h55.11v214.94h356.79v-214.94h55.12l-233.51-206.02ZM322.4,594.32l27.31-105.41c-14.62-6.82-24.74-21.65-24.74-38.85,0-23.67,19.18-42.85,42.85-42.85s42.86,19.18,42.86,42.85c0,17.2-10.13,32.03-24.75,38.85l27.31,105.41h-90.84Z"/>
    </g>
  </g>
</svg>