<?xml version="1.0" encoding="UTF-8"?>
<svg id="Layer_8" data-name="Layer 8" xmlns="http://www.w3.org/2000/svg" xmlns:xlink="http://www.w3.org/1999/xlink" viewBox="0 0 1280 1024">
  <defs>
    <style>
      .cls-1 {
        fill: #822b2b;
      }

      .cls-2 {
        fill: #232323;
      }

      .cls-3 {
        fill: #ffdb80;
      }

      .cls-4 {
        fill: #3c4922;
      }

      .cls-5 {
        fill: #556b2f;
      }

      .cls-6 {
        fill: #497684;
      }

      .cls-7 {
        fill: #3f2121;
      }

      .cls-8 {
        clip-path: url(#clippath-1);
      }

      .cls-9 {
        fill: #fff;
      }

      .cls-10 {
        fill: #d8b568;
      }

      .cls-11 {
        clip-path: url(#clippath);
      }
    </style>
    <clipPath id="clippath">
      <path class="cls-7" d="M290.59,575.29c-1.08-1.97-.1-4.44,2.06-5.09,6.11-1.84,17.72-4.85,28.13-4.85,14.98,0,48.02,15.17,48.02,23.87s-9.07,16.53-23.92,16.53-18.54-4.94-31.27-2.93c-7.31,1.15-16.99.97-20.4.4-1.27-.21-1.88-1.67-1.14-2.71,2.12-2.97,2.95-7.72,2.62-12.99-.27-4.39-2.39-9.08-4.11-12.22Z"/>
    </clipPath>
    <clipPath id="clippath-1">
      <path class="cls-7" d="M944.13,569.12c-1.08-1.97-.1-4.44,2.06-5.09,6.11-1.84,17.72-4.85,28.13-4.85,14.98,0,48.02,15.17,48.02,23.87s-9.07,16.53-23.92,16.53-18.54-4.94-31.27-2.93c-7.31,1.15-16.99.97-20.4.4-1.27-.21-1.88-1.67-1.14-2.71,2.12-2.97,2.95-7.72,2.62-12.99-.27-4.39-2.39-9.08-4.11-12.22Z"/>
    </clipPath>
  </defs>
  <rect class="cls-6" width="1280" height="1024"/>
  <g>
    <polygon class="cls-10" points="217.83 518.81 217.83 556.27 226.33 551.72 226.33 590.88 247.73 577.67 242.72 621.39 260.53 606.82 267.76 643.75 293.26 624.57 293.26 647.34 319.31 626.85 343.81 654.44 357.01 623.66 378.87 643.75 392.22 609.85 409.38 621.39 413.47 575.76 433.96 586.62 430.78 551.26 443.53 554.45 439.31 503.45 336.98 452.56 217.83 518.81"/>
    <ellipse class="cls-2" cx="328.57" cy="510.81" rx="110.74" ry="132.94"/>
    <ellipse class="cls-2" cx="328.57" cy="714.5" rx="172.64" ry="52"/>
    <polygon class="cls-2" points="155.93 714.5 199.57 986.24 457.57 986.24 501.21 714.5 155.93 714.5"/>
    <path class="cls-2" d="M176.14,764.08c-13.47.64-26.93-3.54-37.48-10.93-4.64-3.2-8.34-7.2-12.25-11.03-3.87-3.86-7.68-7.77-11.41-11.75-30.2-31.71-53.38-69.14-79.31-104.22-9.55-13.4-18.59-27.32-26.55-41.82-4.04-7.09-7.91-15.68-11.22-23.26-4.39-4.37-7.67-9.53-10.41-14.93-4.7-9.1-7.1-18.86-9.32-28.75-3.44-14.73-6.42-29.54-9.09-44.44-6.02-34.5-11.17-70.16-19.01-104.29-2.24-9.83-4.97-19.51-8.44-28.98-1.77-4.73-3.65-9.43-6.04-14-13.32-28.09,26.03-48.94,41.7-21.77,1.61,3.09,2.47,6.49,2.64,9.76.25,5.14.99,10.15,1.85,15.13,2.61,14.91,7.21,29.33,12.03,43.64,12.64,38.1,29,75.7,41.49,113.84,5.26,16.86,12.07,33.7,11.13,51.71-.13,2.64-.37,5.31-1.01,8.09l-5.24-9.91c4.78,3.08,9.28,6.39,13.7,9.78,30.47,23.56,56.26,52.15,84.25,78.46,19.59,19.03,37.76,39.41,53.75,61.56,3.18,4.45,6.57,8.72,9.02,13.79,3.95,7.75,6.24,17.78,6.21,26.96.7,19.5-10.85,36.08-31.02,37.35h0Z"/>
    <path class="cls-2" d="M428.07,716.15c1.6-12.06,7.27-23.61,15.79-31.44,3.56-3.33,7.66-5.56,11.64-8.03,4-2.43,8.04-4.78,12.13-7.04,16.33-9.14,33.48-16.49,51.06-22.91,26.7-9.16,52.57-20.17,79.76-27.86,9.29-2.51,18.59-4.7,28.23-5.9,0,0-10.55,9.57-10.55,9.57.53-5.74,2.14-11,4.06-16.28,3.71-10.18,9.49-19.13,15.47-28.04,8.83-13.38,18.03-26.48,27.51-39.42,18.77-25.48,39.17-51.51,57.12-77.56,9.14-13.15,18.09-26.45,25.27-40.8,2.38-4.79,4.67-9.64,6.52-14.77,11.6-28.75,53.5-13.97,44.15,15.89-1.11,3.08-2.89,5.88-4.99,8.13-3.73,3.97-7.02,8.2-10.21,12.5-9.53,12.9-17.34,26.91-24.91,41.01-15.08,27.8-29.05,57.79-43.25,86.06-7.24,14.32-14.75,28.46-22.67,42.39-6.47,11.78-13.62,23.3-23.85,32.29-2.71,2.53-6.21,4.92-9.53,6.88,0,0-7.83,7.89-7.83,7.89-6.89,6.86-14.35,12.82-22.05,18.59-22.81,16.68-47.44,30.26-71.1,45.64-15.89,9.88-32.25,18.86-49.51,26.08-4.3,1.82-8.64,3.56-13.02,5.21-4.4,1.61-8.68,3.46-13.5,4.22-7.47,1.37-16.81.36-24.48-2.35-17.77-5.48-29.78-21.46-27.25-39.97h0Z"/>
    <path class="cls-2" d="M363.35,609.85c.49,7.54-.56,14.97-2.63,22.29-1.03,3.72-1.82,7.43-1.86,11.15-.24,7.61,2.03,15.01,4.14,22.29,2.86,11.14,5.14,22.29,8.07,33.44,5.95,23.47-8.26,47.32-31.73,53.27-23.47,5.95-47.32-8.26-53.27-31.73-1.84-7.26-1.69-14.74,0-21.53,2.93-11.15,5.21-22.29,8.07-33.44,2.11-7.28,4.38-14.69,4.14-22.29-.04-3.72-.83-7.43-1.86-11.15-2.07-7.32-3.12-14.75-2.63-22.29,4.71-42.68,65.01-42.36,69.56,0h0Z"/>
    <ellipse class="cls-2" cx="457.65" cy="695.83" rx="65.94" ry="40.55" transform="translate(-104.41 81.24) rotate(-9.11)"/>
    <ellipse class="cls-2" cx="191.08" cy="699.02" rx="40.55" ry="65.94" transform="translate(-517.19 852.27) rotate(-86.92)"/>
    <rect class="cls-2" x="199.57" y="986.24" width="258.08" height="51.69"/>
    <path class="cls-3" d="M263.12,468.44s2.19,6.89,2.19,11.78,5.25,10.83,5.25,10.83c0,0,2.87-6.63,5.36-11.31,3.01-5.65,8.33-7.44,8.33-7.44,0,0,10.92,5.96,12.88,8.4s4.89,8.81,4.89,8.81c0,0,8.32-4.89,10.77-7.83s6.52-11.75,6.52-11.75c0,0,11.42.72,16,7.34s9.34,11.98,9.34,11.98c0,0,6.84-4.17,8.33-11.98.76-3.98-.6-18.07-.6-18.07,0,0,13.09,6.55,16.7,14.64,2.19,4.92,3.61,16,3.61,16,12.41-4.3,18.35-8.42,25.76-20.28,4.97,7.2,7.5,20.38,6.09,28.92,5.28-1.1,11.24-5.23,15.22-10.27,5.32,10.69,9.09,16.88,12.46,35.06l7.01-7.83,8.65,28.38,4.89-61.67,7.83,10.77s-.98-16.64-8.32-30.35-8.81-16.64-8.81-16.64l6.36,3.43s-9.79-24.47-26.43-43.56c-16.64-19.09-18.11-21.54-18.11-21.54,0,0-19.31-19.93-74.62-19.44-55.31.49-71.02,18.26-89.84,33.63-19.01,15.53-28.39,32.31-28.39,32.31l17.62-6.36c-11.26,12.28-19.29,24.68-23.49,37.2l16.15-6.85c-9.21,17.74-14.18,37.52-16.15,58.74l6.85-7.34-.98,25.94,12.24-16.15,1.47,7.83,11.26-32.31,6.85,6.85,18.86-29.89Z"/>
    <path class="cls-9" d="M386.86,516.3c.87,9.15-3.18,14.29-13.01,15.54-9.18,1.17-14.49-3.68-15.36-12.83-.87-9.15,4.78-18.77,12.6-17.93s14.89,6.07,15.77,15.22Z"/>
    <path class="cls-9" d="M264.76,516.3c-.87,9.15,3.18,14.29,13.01,15.54,9.18,1.17,14.49-3.68,15.36-12.83.87-9.15-4.78-18.77-12.6-17.93s-14.89,6.07-15.77,15.22Z"/>
    <g>
      <path class="cls-7" d="M290.59,575.29c-1.08-1.97-.1-4.44,2.06-5.09,6.11-1.84,17.72-4.85,28.13-4.85,14.98,0,48.02,15.17,48.02,23.87s-9.07,16.53-23.92,16.53-18.54-4.94-31.27-2.93c-7.31,1.15-16.99.97-20.4.4-1.27-.21-1.88-1.67-1.14-2.71,2.12-2.97,2.95-7.72,2.62-12.99-.27-4.39-2.39-9.08-4.11-12.22Z"/>
      <g class="cls-11">
        <path class="cls-1" d="M310.09,606.19c2.23-4.98,6.68-8.91,11.89-10.53,5.21-1.61,11.1-.88,15.76,1.97,6.53-6.34,16.64-8.71,25.31-5.92,2.04.66,4.05,1.61,5.48,3.21s2.17,3.93,1.44,5.94c-.74,2.05-2.77,3.32-4.71,4.32-14.18,7.3-31.46,8.32-46.41,2.74-2.77-1.03-5.89-1-8.75-1.72Z"/>
      </g>
    </g>
  </g>
  <g>
    <path class="cls-10" d="M860.01,532.58c1.27,36.74,9.06,80.7,6.76,107.2-2.3,26.5-13.12,61.26-13.12,61.26l258.77-.74s-12.25-43.53-11.57-83.49c.68-39.96,6.73-90.96,6.73-90.96l-33.88-60.05h-187.54l-26.15,66.78Z"/>
    <ellipse class="cls-2" cx="982.11" cy="504.65" rx="110.74" ry="132.94"/>
    <path class="cls-2" d="M1169.8,677.51c28.71-.4-92.35,82.83-187.69,82.83s-206.14-77.15-177.43-77.15c61.9,0,131.45-26.85,177.43-26.85s97.56,22.43,187.69,21.17Z"/>
    <path class="cls-2" d="M831.57,712.1c5.13,45.73,11.31,82.87,16.08,108.57,11.49,62.02,21.28,93.07,23.72,146.07,1.4,30.28-.18,55.22-1.74,71.61h224.97c-2.66-16.33-5.68-41.81-4.37-72.87,2.38-56.13,17.03-85.38,29.49-147.95,4.86-24.38,10.68-60.37,12.94-105.43h-301.08Z"/>
    <path class="cls-2" d="M1080.61,715.98c4.09-10.81,10.64-18.26,19.05-24.75,3.78-2.89,7.93-5.01,11.99-7.32,20.34-11.46,41.6-21.04,63.34-29.64,34.93-13.43,68.77-29.46,104.24-41.47,0,0-10.55,9.57-10.55,9.57,7.13-20.36,20.08-37.7,31.93-55.47,24.07-35.26,50.15-69.3,73.62-104.97,11.83-17.76,23.37-35.71,30.39-56.42,4.17-12.32,17.55-18.93,29.87-14.75,16.29,5.32,21.37,26.71,9.29,38.78-15.29,15.64-26.05,34.06-36.52,52.66-10.53,18.56-20.54,37.44-30.34,56.45-12.28,23.75-24.5,47.49-37.64,70.74-5.2,9.32-10.52,18.57-16.87,27.18-3.18,4.31-6.49,8.53-10.34,12.42,0,0-7.43,7.5-7.43,7.5l-3.12,2.07c-11.65,7.7-23.9,14.94-36.01,21.88-39.02,20.95-76.16,45.78-116.85,63.49-10.98,4.82-21.7,9.79-34.12,9.8-5.18,0-10.53-.32-16.7-2.36-14.65-4.81-22.47-20.87-17.23-35.38h0Z"/>
    <path class="cls-2" d="M859.75,753.36c-11.04,3.45-20.93,2.87-31.23.25-9.02-2.67-17.38-6.82-25.98-10.54-34.07-15.29-65.42-36.09-98.25-53.77-5.91-3.22-12.4-6.99-18.29-10.35-11.11-6.52-22.34-13.25-33.05-20.46,0,0-7.43-7.5-7.43-7.5-7.54-7.78-13.55-16.61-19.21-25.75-27.16-45.97-49.55-94.67-75.97-141.05-10.47-18.6-21.24-37.01-36.52-52.66-20.88-23.06,10.8-54.47,33.7-32.93,2.52,2.58,4.36,5.7,5.46,8.91,7.02,20.72,18.55,38.66,30.39,56.42,11.77,17.8,24.07,35.28,36.57,52.63,18.7,26.05,37.51,51.99,54.73,79.02,5.58,9.18,10.72,18.54,14.24,28.79,0,0-10.55-9.57-10.55-9.57,13.24,4.44,26.5,9.61,39.42,14.87,42.69,18.72,87.45,33.27,128.16,56.24,4.06,2.31,8.21,4.43,11.99,7.32,8.41,6.49,14.94,13.93,19.05,24.75,5.24,14.5-2.59,30.56-17.23,35.38h0Z"/>
    <path class="cls-2" d="M1016.88,603.68c.49,7.54-.56,14.97-2.63,22.29-1.03,3.72-1.82,7.43-1.86,11.15-.24,7.61,2.03,15.01,4.14,22.29,2.86,11.14,5.14,22.29,8.07,33.44,5.95,23.47-8.26,47.32-31.73,53.27-23.47,5.95-47.32-8.26-53.27-31.73-1.84-7.26-1.69-14.74,0-21.53,2.93-11.15,5.21-22.29,8.07-33.44,2.11-7.28,4.38-14.69,4.14-22.29-.04-3.72-.83-7.43-1.86-11.15-2.07-7.32-3.12-14.75-2.63-22.29,4.71-42.68,65.01-42.36,69.56,0h0Z"/>
    <ellipse class="cls-2" cx="1112.5" cy="700.29" rx="65.94" ry="32.84" transform="translate(-96.83 184.95) rotate(-9.11)"/>
    <ellipse class="cls-2" cx="845.99" cy="701.03" rx="33.72" ry="65.94" transform="translate(100.52 1508.14) rotate(-86.92)"/>
    <path class="cls-9" d="M1040.4,510.13c.87,9.15-3.18,14.29-13.01,15.54-9.18,1.17-14.49-3.68-15.36-12.83-.87-9.15,4.78-18.77,12.6-17.93s14.89,6.07,15.77,15.22Z"/>
    <path class="cls-9" d="M918.29,510.13c-.87,9.15,3.18,14.29,13.01,15.54,9.18,1.17,14.49-3.68,15.36-12.83.87-9.15-4.78-18.77-12.6-17.93s-14.89,6.07-15.77,15.22Z"/>
    <g>
      <path class="cls-7" d="M944.13,569.12c-1.08-1.97-.1-4.44,2.06-5.09,6.11-1.84,17.72-4.85,28.13-4.85,14.98,0,48.02,15.17,48.02,23.87s-9.07,16.53-23.92,16.53-18.54-4.94-31.27-2.93c-7.31,1.15-16.99.97-20.4.4-1.27-.21-1.88-1.67-1.14-2.71,2.12-2.97,2.95-7.72,2.62-12.99-.27-4.39-2.39-9.08-4.11-12.22Z"/>
      <g class="cls-8">
        <path class="cls-1" d="M963.62,600.02c2.23-4.98,6.68-8.91,11.89-10.53,5.21-1.61,11.1-.88,15.76,1.97,6.53-6.34,16.64-8.71,25.31-5.92,2.04.66,4.05,1.61,5.48,3.21s2.17,3.93,1.44,5.94c-.74,2.05-2.77,3.32-4.71,4.32-14.18,7.3-31.46,8.32-46.41,2.74-2.77-1.03-5.89-1-8.75-1.72Z"/>
      </g>
    </g>
    <path class="cls-2" d="M1147.64,810.3c0,58.67-73.13,58.46-163.38,58.46s-163.32,6.92-163.47-58.46c-.11-47.58,50.93-127.12,163.47-127.12s163.38,80.21,163.38,127.12Z"/>
    <path class="cls-3" d="M932.46,437.69s2,30.47,58.93,41.7,90.37,4.41,90.37,4.41c0,0-4.22,24.69-3.01,48.18s4.82,65.04-1.2,74.68-11.44,18.07-11.44,18.07c0,0,34.33-15.74,38.54-49.12s12.04-84.57,4.82-111.07-40.95-107.2-112.62-104.79-91.54,16.26-111.41,48.18-24.09,42.16-28.3,61.43-8.26,48.18,11.23,82.5,32.74,35.53,32.74,35.53c0,0-11.44-21.68-13.25-40.35s0-63.23,0-63.23c0,0,18.49-5.42,30.32-13.85s14.29-32.26,14.29-32.26Z"/>
  </g>
  <g>
    <path class="cls-4" d="M811.96,451.88c0,12.85-70.06,23.26-156.48,23.26s-142.53-10.41-142.53-23.26,56.11-23.26,142.53-23.26,156.48,10.41,156.48,23.26Z"/>
    <ellipse cx="662.45" cy="457.37" rx="120.62" ry="144.8"/>
    <ellipse cx="662.45" cy="679.24" rx="188.05" ry="56.64"/>
    <polygon points="474.4 679.24 521.94 975.22 802.96 975.22 850.49 679.24 474.4 679.24"/>
    <path d="M532.18,737.08c3.53,16.09,1.31,34.91-6.07,49.11-3.09,6.18-7.37,11.39-11.5,16.82-36.34,49.02-84.58,86.94-128.97,128.18-10.07,9.08-20.48,17.85-31.22,26.15-10.97,8.41-22.11,16.46-34.2,23.43,0,0-20.52,11.67-20.52,11.67-6.89-3.53-35.94-15.75-41.41-20.46-7.69-5.57-14.29-12.51-19.92-19.97-5.47-7.47-10.23-15.43-15.19-23.25-14.66-23.25-28.36-48.37-41.46-72.6-14.65-27.3-29.7-54.38-46.17-80.6-10.02-15.67-20.91-30.83-34.67-43.52-30.22-29.1,9.57-74.07,42.17-47.31,3.84,3.42,6.7,7.71,8.46,12.18,4.66,11.65,11.02,22.27,17.87,32.65,35.31,50.85,79.88,94.73,117.93,143.44,13.12,17.31,28.1,33.84,33.88,55.34.86,3.16,1.59,6.4,1.87,9.96,0,0-53.25-3.55-53.25-3.55,2.92-6.44,6.21-12.55,9.6-18.56,10.12-17.81,21.58-34.73,33.81-51.1,24.88-31.9,47.69-65.63,73.85-96.53,15.29-17.95,31.99-34.66,49.56-50.39,11.93-10.67,28.4-16.52,44.84-17.13,23.66-2.01,45.51,13.61,50.71,36.04h0Z"/>
    <path d="M791.7,669.49c12.29-8.37,29.25-13.55,43.59-11.6,5.92.69,11.27,2.82,16.8,4.75,16.27,5.75,32.15,12.53,47.43,20.53,23.82,12.33,51.03,30.88,74.01,44.86,24.94,14.99,50.03,31.23,70.54,52.19,0,0,19.59,26.95,19.59,26.95,4.02,4.55,6.62,9.53,8.87,14.88,3.1,7.58,4.72,15.31,5.39,23.34.6,7.67,1.42,16.16,1.79,23.81,1.31,20.86,1.27,42.98,1.23,63.94-.19,26.65.12,53.3,2.06,79.86.8,10.6,2.31,21.09,4.84,31.43,1.32,5.17,2.79,10.32,4.97,15.39,7.11,16.54-.53,35.71-17.07,42.82-23.24,10.21-49.08-9.94-45.11-34.81,1.49-10.74.99-21.37-.1-32.04-1.07-10.56-3.26-20.96-5.38-31.36-6.34-31.15-15.5-62.29-23.2-93.16-3.82-15.52-7.16-31.08-9.95-46.79-.85-4.68-1.98-11.06-2.38-15.72-.84-11.03.16-22.48,5.14-32.71,0,0,19.59,26.95,19.59,26.95-6.14-.45-12.06-1.35-17.92-2.38-22.75-3.96-45.52-11.29-67.16-19.08-25.41-8.9-56.92-18.22-81.61-28.8-15.87-6.74-31.18-14.73-45.95-23.66-5-3.06-10.03-5.84-14.32-9.99-6.26-5.76-11.91-15-14.88-23.91-9.17-24.72-1.69-50.79,19.19-65.7h0Z"/>
    <path d="M708.27,565.25c.5,6.09-.19,12.25-1.64,18.21-1.57,5.95-4.29,12.1-4.28,18.21-.32,8.37,2.72,16.42,5.46,24.28,3.76,12.13,6.77,24.28,10.63,36.42,19.82,75.15-86.28,107.71-112,34.32-3.57-11.64-3.33-23.5,0-34.32,3.86-12.14,6.87-24.29,10.63-36.42,2.74-7.86,5.78-15.91,5.46-24.28.01-6.11-2.71-12.26-4.28-18.21-1.45-5.96-2.14-12.12-1.64-18.21,6.91-55.41,84.98-54.92,91.65,0h0Z"/>
    <ellipse cx="821.21" cy="685.65" rx="44.17" ry="71.82" transform="translate(-79.56 1262.8) rotate(-72.51)"/>
    <ellipse cx="485.75" cy="702.15" rx="71.82" ry="44.17" transform="translate(-339.67 483.87) rotate(-40.51)"/>
    <path d="M201.48,988.33l107.58-26.09-71.49-262.32,24.11-41.03-91.3-214.33,5.87-10.51-78.11-173-10.5-6.2-30.4-74.24-39.18-17.57L-7.3,104.59l32.68-34.37-5.89-13.89-37.27,14.96-5.36-10.84-17.23,5.94,4.61,14-6.83,4.22,82.88,196.18-3.86,5.76,49.35,152.86,8.08,1.07,22.93,59.98s-51.1,12.05-79.43,3.94c-28.32-8.11-81.2-34.74-81.2-34.74l-35.69,52.41s52.94,38.73,111.56,46.3c58.62,7.57,105.37-2.46,105.37-2.46l8.68,22.27s-21.85,6.1-28.93,13.17c-7.08,7.08,12.05,47.83,16.71,51.02,4.67,3.18,10,5.28,10,5.28l-60.21,71.62,24.94,33.79,59.28-53.51,25.54-2.31,5.35,25.01,2.69,256.09Z"/>
    <rect x="521.94" y="975.22" width="281.11" height="56.3"/>
    <path class="cls-5" d="M811.96,451.88c-41.78-14.37-93.51-22.86-149.51-22.86s-107.72,8.5-149.51,22.86c3.18-104.76,34.51-188.37,149.51-188.37s146.33,83.61,149.51,188.37Z"/>
    <path class="cls-9" d="M635.86,473.51c.02.48-.01.97-.1,1.46-.87,4.93-10.96,9.14-24.44,9.23-13.25.09-21.8-6.46-22.86-13.77-.23-1.54-.14-3.01.29-4.35,8.33,2.1,18.5,4.05,29.53,5.54,6.14.83,12.06,1.46,17.58,1.88Z"/>
    <path class="cls-9" d="M689.04,473.51c-.02.48.01.97.1,1.46.87,4.93,10.96,9.14,24.44,9.23,13.25.09,21.8-6.46,22.86-13.77.23-1.54.14-3.01-.29-4.35-8.33,2.1-18.5,4.05-29.53,5.54-6.14.83-12.06,1.46-17.58,1.88Z"/>
  </g>
</svg>