<?xml version="1.0" encoding="UTF-8"?>
<svg id="Layer_7" data-name="Layer 7" xmlns="http://www.w3.org/2000/svg" xmlns:xlink="http://www.w3.org/1999/xlink" viewBox="0 0 1280 1024">
  <defs>
    <style>
      .cls-1 {
        fill: #822b2b;
      }

      .cls-2 {
        fill: #ffdb80;
      }

      .cls-3 {
        fill: #497684;
      }

      .cls-4 {
        fill: #3f2121;
      }

      .cls-5 {
        fill: #fff;
      }

      .cls-6 {
        fill: #d8b568;
      }

      .cls-7 {
        clip-path: url(#clippath);
      }
    </style>
    <clipPath id="clippath">
      <path class="cls-4" d="M611.28,558.54c-1.08-1.97-.1-4.44,2.06-5.09,6.11-1.84,17.72-4.85,28.13-4.85,14.98,0,48.02,15.17,48.02,23.87s-9.07,16.53-23.92,16.53-18.54-4.94-31.27-2.93c-7.31,1.15-16.99.97-20.4.4-1.27-.21-1.88-1.67-1.14-2.71,2.12-2.97,2.95-7.72,2.62-12.99-.27-4.39-2.39-9.08-4.11-12.22Z"/>
    </clipPath>
  </defs>
  <rect class="cls-3" width="1280" height="1024"/>
  <path class="cls-6" d="M527.17,521.99c1.27,36.74,9.06,80.7,6.76,107.2-2.3,26.5-13.12,61.26-13.12,61.26l258.77-.74s-12.25-43.53-11.57-83.49c.68-39.96,6.73-90.96,6.73-90.96l-33.88-60.05h-187.54l-26.15,66.78Z"/>
  <ellipse cx="649.26" cy="494.06" rx="110.74" ry="132.94"/>
  <path d="M836.95,666.92c28.71-.4-92.35,82.83-187.69,82.83s-206.14-77.15-177.43-77.15c61.9,0,131.45-26.85,177.43-26.85s97.56,22.43,187.69,21.17Z"/>
  <path d="M498.72,701.51c5.13,45.73,11.31,82.87,16.08,108.57,11.49,62.02,21.28,93.07,23.72,146.07,1.4,30.28-.18,55.22-1.74,71.61h224.97c-2.66-16.33-5.68-41.81-4.37-72.87,2.38-56.13,17.03-85.38,29.49-147.95,4.86-24.38,10.68-60.37,12.94-105.43h-301.08Z"/>
  <path d="M747.76,705.39c4.09-10.81,10.64-18.26,19.05-24.75,3.78-2.89,7.93-5.01,11.99-7.32,20.34-11.46,41.6-21.04,63.34-29.64,34.93-13.43,68.77-29.46,104.24-41.47,0,0-10.55,9.57-10.55,9.57,7.13-20.36,20.08-37.7,31.93-55.47,24.07-35.26,50.15-69.3,73.62-104.97,11.83-17.76,23.37-35.71,30.39-56.42,4.17-12.32,17.55-18.93,29.87-14.75,16.29,5.32,21.37,26.71,9.29,38.78-15.29,15.64-26.05,34.06-36.52,52.66-10.53,18.56-20.54,37.44-30.34,56.45-12.28,23.75-24.5,47.49-37.64,70.74-5.2,9.32-10.52,18.57-16.87,27.18-3.18,4.31-6.49,8.53-10.34,12.42l-7.43,7.5s-3.12,2.07-3.12,2.07c-11.65,7.7-23.9,14.94-36.01,21.88-39.02,20.95-76.16,45.78-116.85,63.49-10.98,4.82-21.7,9.79-34.12,9.8-5.18,0-10.52-.32-16.7-2.36-14.65-4.81-22.47-20.87-17.23-35.38h0Z"/>
  <path d="M526.9,742.77c-11.04,3.45-20.93,2.87-31.23.25-9.02-2.67-17.38-6.82-25.98-10.54-34.07-15.29-65.42-36.09-98.25-53.77-5.91-3.22-12.4-6.99-18.29-10.35-11.11-6.52-22.34-13.25-33.05-20.46,0,0-7.43-7.5-7.43-7.5-7.54-7.78-13.55-16.61-19.21-25.75-27.16-45.97-49.55-94.67-75.97-141.05-10.47-18.6-21.24-37.01-36.52-52.66-20.88-23.06,10.8-54.47,33.7-32.93,2.52,2.58,4.36,5.7,5.46,8.91,7.02,20.72,18.55,38.66,30.39,56.42,11.77,17.8,24.07,35.28,36.57,52.63,18.7,26.05,37.51,51.99,54.73,79.02,5.58,9.18,10.72,18.54,14.24,28.79,0,0-10.55-9.57-10.55-9.57,13.24,4.44,26.5,9.61,39.42,14.87,42.69,18.72,87.45,33.27,128.16,56.24,4.06,2.31,8.21,4.43,11.99,7.32,8.41,6.49,14.94,13.93,19.05,24.75,5.24,14.5-2.59,30.56-17.23,35.38h0Z"/>
  <path d="M684.04,593.1c.49,7.54-.56,14.97-2.63,22.29-1.03,3.72-1.82,7.43-1.86,11.15-.24,7.61,2.03,15.01,4.14,22.29,2.86,11.14,5.14,22.29,8.07,33.44,5.95,23.47-8.26,47.32-31.73,53.27-23.47,5.95-47.32-8.26-53.27-31.73-1.84-7.26-1.69-14.74,0-21.53,2.93-11.15,5.21-22.29,8.07-33.44,2.11-7.28,4.38-14.69,4.14-22.29-.04-3.72-.83-7.43-1.86-11.15-2.07-7.32-3.12-14.75-2.63-22.29,4.71-42.68,65.01-42.36,69.56,0h0Z"/>
  <ellipse cx="779.65" cy="689.71" rx="65.94" ry="32.84" transform="translate(-99.35 132.12) rotate(-9.11)"/>
  <ellipse cx="513.15" cy="690.44" rx="33.72" ry="65.94" transform="translate(-203.87 1165.75) rotate(-86.92)"/>
  <path class="cls-5" d="M707.55,499.55c.87,9.15-3.18,14.29-13.01,15.54-9.18,1.17-14.49-3.68-15.36-12.83-.87-9.15,4.78-18.77,12.6-17.93s14.89,6.07,15.77,15.22Z"/>
  <path class="cls-5" d="M585.45,499.55c-.87,9.15,3.18,14.29,13.01,15.54,9.18,1.17,14.49-3.68,15.36-12.83.87-9.15-4.78-18.77-12.6-17.93s-14.89,6.07-15.77,15.22Z"/>
  <g>
    <path class="cls-4" d="M611.28,558.54c-1.08-1.97-.1-4.44,2.06-5.09,6.11-1.84,17.72-4.85,28.13-4.85,14.98,0,48.02,15.17,48.02,23.87s-9.07,16.53-23.92,16.53-18.54-4.94-31.27-2.93c-7.31,1.15-16.99.97-20.4.4-1.27-.21-1.88-1.67-1.14-2.71,2.12-2.97,2.95-7.72,2.62-12.99-.27-4.39-2.39-9.08-4.11-12.22Z"/>
    <g class="cls-7">
      <path class="cls-1" d="M630.78,589.43c2.23-4.98,6.68-8.91,11.89-10.53,5.21-1.61,11.1-.88,15.76,1.97,6.53-6.34,16.64-8.71,25.31-5.92,2.04.66,4.05,1.61,5.48,3.21s2.17,3.93,1.44,5.94c-.74,2.05-2.77,3.32-4.71,4.32-14.18,7.3-31.46,8.32-46.41,2.74-2.77-1.03-5.89-1-8.75-1.72Z"/>
    </g>
  </g>
  <path d="M814.79,799.72c0,58.67-73.13,58.46-163.38,58.46s-163.32,6.92-163.47-58.46c-.11-47.58,50.93-127.12,163.47-127.12s163.38,80.21,163.38,127.12Z"/>
  <path class="cls-2" d="M599.62,427.1s2,30.47,58.93,41.7,90.37,4.41,90.37,4.41c0,0-4.22,24.69-3.01,48.18s4.82,65.04-1.2,74.68-11.44,18.07-11.44,18.07c0,0,34.33-15.74,38.54-49.12s12.04-84.57,4.82-111.07-40.95-107.2-112.62-104.79-91.54,16.26-111.41,48.18-24.09,42.16-28.3,61.43-8.26,48.18,11.23,82.5,32.74,35.53,32.74,35.53c0,0-11.44-21.68-13.25-40.35s0-63.23,0-63.23c0,0,18.49-5.42,30.32-13.85s14.29-32.26,14.29-32.26Z"/>
</svg>