<?xml version="1.0" encoding="UTF-8"?>
<svg id="MAND" xmlns="http://www.w3.org/2000/svg" xmlns:xlink="http://www.w3.org/1999/xlink" viewBox="0 0 1280 1024">
  <defs>
    <style>
      .cls-1 {
        fill: #822b2b;
      }

      .cls-2 {
        fill: #ffdb80;
      }

      .cls-3 {
        fill: #497684;
      }

      .cls-4 {
        fill: #3f2121;
      }

      .cls-5 {
        fill: #fff;
      }

      .cls-6 {
        fill: #d8b568;
      }

      .cls-7 {
        clip-path: url(#clippath);
      }
    </style>
    <clipPath id="clippath">
      <path class="cls-4" d="M611.28,558.54c-1.08-1.97-.1-4.44,2.06-5.09,6.11-1.84,17.72-4.85,28.13-4.85,14.98,0,48.02,15.17,48.02,23.87s-9.07,16.53-23.92,16.53-18.54-4.94-31.27-2.93c-7.31,1.15-16.99.97-20.4.4-1.27-.21-1.88-1.67-1.14-2.71,2.12-2.97,2.95-7.72,2.62-12.99-.27-4.39-2.39-9.08-4.11-12.22Z"/>
    </clipPath>
  </defs>
  <rect class="cls-3" x="0" width="1280" height="1024"/>
  <polygon class="cls-6" points="538.52 502.05 538.52 539.52 547.02 534.96 547.02 574.12 568.42 560.92 563.41 604.63 581.22 590.06 588.45 627 613.95 607.82 613.95 630.59 640 610.1 664.5 637.68 677.7 606.91 699.56 627 712.91 593.1 730.07 604.63 734.16 559.01 754.65 569.87 751.47 534.51 764.22 537.7 760 486.7 657.67 435.81 538.52 502.05"/>
  <ellipse cx="649.26" cy="494.06" rx="110.74" ry="132.94"/>
  <ellipse cx="649.26" cy="697.75" rx="172.64" ry="52"/>
  <polygon points="476.62 697.75 520.26 969.48 778.26 969.48 821.9 697.75 476.62 697.75"/>
  <path d="M496.83,747.32c-13.47.64-26.93-3.54-37.48-10.93-4.64-3.2-8.34-7.2-12.25-11.03-3.87-3.86-7.68-7.77-11.41-11.75-30.2-31.71-53.38-69.14-79.31-104.22-9.55-13.4-18.59-27.32-26.55-41.82-4.04-7.09-7.91-15.68-11.22-23.26-4.39-4.37-7.67-9.53-10.41-14.93-4.7-9.1-7.1-18.86-9.32-28.75-3.44-14.73-6.42-29.54-9.09-44.44-6.02-34.5-11.17-70.16-19.01-104.29-2.24-9.83-4.96-19.51-8.44-28.98-1.77-4.73-3.65-9.43-6.04-14-13.32-28.09,26.03-48.94,41.7-21.77,1.61,3.09,2.47,6.49,2.64,9.76.25,5.14.99,10.15,1.85,15.13,2.61,14.91,7.21,29.33,12.03,43.64,12.64,38.1,29,75.7,41.49,113.84,5.26,16.86,12.07,33.7,11.13,51.71-.13,2.64-.37,5.31-1.01,8.09l-5.24-9.91c4.78,3.08,9.28,6.39,13.7,9.78,30.47,23.56,56.26,52.15,84.25,78.46,19.59,19.03,37.76,39.41,53.75,61.56,3.18,4.45,6.57,8.72,9.02,13.79,3.95,7.75,6.24,17.78,6.21,26.96.7,19.5-10.85,36.08-31.02,37.35h0Z"/>
  <path d="M748.76,699.39c1.6-12.06,7.27-23.61,15.79-31.44,3.56-3.33,7.66-5.56,11.64-8.03,4-2.43,8.04-4.78,12.13-7.04,16.33-9.14,33.48-16.49,51.06-22.91,26.7-9.16,52.57-20.17,79.76-27.86,9.29-2.51,18.59-4.7,28.23-5.9,0,0-10.55,9.57-10.55,9.57.53-5.74,2.14-11,4.06-16.28,3.71-10.18,9.49-19.13,15.47-28.04,8.83-13.38,18.03-26.48,27.51-39.42,18.77-25.48,39.17-51.51,57.12-77.56,9.14-13.15,18.09-26.45,25.27-40.8,2.38-4.79,4.67-9.64,6.52-14.77,11.6-28.75,53.5-13.97,44.15,15.89-1.11,3.09-2.89,5.88-4.99,8.13-3.73,3.97-7.02,8.2-10.21,12.5-9.53,12.9-17.34,26.91-24.91,41.01-15.08,27.8-29.05,57.79-43.25,86.06-7.24,14.32-14.75,28.46-22.67,42.39-6.47,11.78-13.62,23.3-23.85,32.29-2.71,2.53-6.21,4.92-9.53,6.88,0,0-7.83,7.89-7.83,7.89-6.89,6.86-14.35,12.82-22.05,18.59-22.81,16.68-47.44,30.26-71.1,45.64-15.89,9.88-32.25,18.86-49.51,26.08-4.3,1.82-8.64,3.56-13.02,5.21-4.4,1.61-8.68,3.46-13.5,4.22-7.47,1.37-16.81.36-24.48-2.35-17.77-5.48-29.78-21.46-27.25-39.97h0Z"/>
  <path d="M684.04,593.1c.49,7.54-.56,14.97-2.63,22.29-1.03,3.72-1.82,7.43-1.86,11.15-.24,7.61,2.03,15.01,4.14,22.29,2.86,11.14,5.14,22.29,8.07,33.44,5.95,23.47-8.26,47.32-31.73,53.27-23.47,5.95-47.32-8.26-53.27-31.73-1.84-7.26-1.69-14.74,0-21.53,2.93-11.15,5.21-22.29,8.07-33.44,2.11-7.28,4.38-14.69,4.14-22.29-.04-3.72-.83-7.43-1.86-11.15-2.07-7.32-3.12-14.75-2.63-22.29,4.71-42.68,65.01-42.36,69.56,0h0Z"/>
  <ellipse cx="778.34" cy="679.07" rx="65.94" ry="40.55" transform="translate(-97.71 131.81) rotate(-9.11)"/>
  <ellipse cx="511.77" cy="682.26" rx="40.55" ry="65.94" transform="translate(-197 1156.64) rotate(-86.92)"/>
  <rect x="520.26" y="969.48" width="258.08" height="51.69"/>
  <path class="cls-2" d="M583.81,451.68s2.19,6.89,2.19,11.78,5.25,10.83,5.25,10.83c0,0,2.87-6.63,5.36-11.31,3.01-5.65,8.33-7.44,8.33-7.44,0,0,10.92,5.96,12.88,8.4s4.89,8.81,4.89,8.81c0,0,8.32-4.89,10.77-7.83s6.52-11.75,6.52-11.75c0,0,11.42.72,16,7.34s9.34,11.98,9.34,11.98c0,0,6.84-4.17,8.33-11.98.76-3.98-.6-18.07-.6-18.07,0,0,13.09,6.55,16.7,14.64,2.19,4.92,3.61,16,3.61,16,12.41-4.3,18.35-8.42,25.76-20.28,4.97,7.2,7.5,20.38,6.09,28.92,5.28-1.1,11.24-5.23,15.22-10.27,5.32,10.69,9.09,16.88,12.46,35.06l7.01-7.83,8.65,28.38,4.89-61.67,7.83,10.77s-.98-16.64-8.32-30.35-8.81-16.64-8.81-16.64l6.36,3.43s-9.79-24.47-26.43-43.56c-16.64-19.09-18.11-21.54-18.11-21.54,0,0-19.31-19.93-74.62-19.44-55.31.49-71.02,18.26-89.84,33.63-19.01,15.53-28.39,32.31-28.39,32.31l17.62-6.36c-11.26,12.28-19.29,24.68-23.49,37.2l16.15-6.85c-9.21,17.74-14.18,37.52-16.15,58.74l6.85-7.34-.98,25.94,12.24-16.15,1.47,7.83,11.26-32.31,6.85,6.85,18.86-29.89Z"/>
  <path class="cls-5" d="M707.55,499.55c.87,9.15-3.18,14.29-13.01,15.54-9.18,1.17-14.49-3.68-15.36-12.83-.87-9.15,4.78-18.77,12.6-17.93s14.89,6.07,15.77,15.22Z"/>
  <path class="cls-5" d="M585.45,499.55c-.87,9.15,3.18,14.29,13.01,15.54,9.18,1.17,14.49-3.68,15.36-12.83.87-9.15-4.78-18.77-12.6-17.93s-14.89,6.07-15.77,15.22Z"/>
  <g>
    <path class="cls-4" d="M611.28,558.54c-1.08-1.97-.1-4.44,2.06-5.09,6.11-1.84,17.72-4.85,28.13-4.85,14.98,0,48.02,15.17,48.02,23.87s-9.07,16.53-23.92,16.53-18.54-4.94-31.27-2.93c-7.31,1.15-16.99.97-20.4.4-1.27-.21-1.88-1.67-1.14-2.71,2.12-2.97,2.95-7.72,2.62-12.99-.27-4.39-2.39-9.08-4.11-12.22Z"/>
    <g class="cls-7">
      <path class="cls-1" d="M630.78,589.43c2.23-4.98,6.68-8.91,11.89-10.53,5.21-1.61,11.1-.88,15.76,1.97,6.53-6.34,16.64-8.71,25.31-5.92,2.04.66,4.05,1.61,5.48,3.21s2.17,3.93,1.44,5.94c-.74,2.05-2.77,3.32-4.71,4.32-14.18,7.3-31.46,8.32-46.41,2.74-2.77-1.03-5.89-1-8.75-1.72Z"/>
    </g>
  </g>
</svg>