<?xml version="1.0" encoding="UTF-8"?>
<svg xmlns="http://www.w3.org/2000/svg" viewBox="0 0 1080 1080">
  <defs>
    <style>
      .cls-1 {
        fill: #72613e;
      }

      .cls-1, .cls-2, .cls-3, .cls-4, .cls-5, .cls-6, .cls-7, .cls-8, .cls-9, .cls-10, .cls-11 {
        stroke-linecap: round;
      }

      .cls-1, .cls-2, .cls-3, .cls-4, .cls-5, .cls-6, .cls-7, .cls-8, .cls-10, .cls-11 {
        stroke-linejoin: round;
      }

      .cls-1, .cls-3, .cls-4, .cls-5, .cls-6, .cls-7, .cls-8, .cls-9, .cls-10, .cls-11 {
        stroke-width: 10px;
      }

      .cls-1, .cls-3, .cls-5, .cls-7, .cls-8, .cls-9, .cls-10, .cls-11 {
        stroke: #5b4a35;
      }

      .cls-12 {
        fill: #fef3d7;
      }

      .cls-2 {
        stroke-width: 5px;
      }

      .cls-2, .cls-4, .cls-6 {
        stroke: #332f2a;
      }

      .cls-2, .cls-9, .cls-11 {
        fill: none;
      }

      .cls-3 {
        fill: #c64c38;
      }

      .cls-4 {
        fill: #604234;
      }

      .cls-5 {
        fill: #857044;
      }

      .cls-6 {
        fill: #b2b2b2;
      }

      .cls-7 {
        fill: #c7c7c7;
      }

      .cls-8 {
        fill: #f5bb7d;
      }

      .cls-9 {
        stroke-miterlimit: 10;
      }

      .cls-10 {
        fill: #857144;
      }
    </style>
  </defs>
  <g id="Baggrund">
    <rect class="cls-12" width="1080" height="1080"/>
  </g>
  <g id="AK47">
    <path class="cls-4" d="M358.19,582.4l-30.92,70.55v21.12l-56.28,122.49s-32.59-13.15-48.44-20.46c-15.84-7.32-38.09-23.97-38.09-23.97l133.25-188.92s23.59,14.18,40.48,19.19Z"/>
    <path class="cls-4" d="M495.38,215.17l-27.86,93.8-27.2-8.14-12.56,45.94-38.22-10.27s-2.85-5.69-1.22-13.81c1.62-8.13,9.34-18.69,14.22-25.6,4.87-6.91,6.9-21.13,14.22-39,7.31-17.88,23.56-57.7,23.56-57.7l55.06,14.78Z"/>
    <path class="cls-4" d="M335.39,514.49l-17.68,48.72s-27.71-6.51-42.75-2.04c-15.03,4.47-30.06,7.72-38.59,5.29-8.54-2.44-10.97-19.1-11.79-24.79-.81-5.69.41-16.66,11.79-23.05,11.37-6.4,25.19-1.73,42.95-4.13,17.77-2.4,28.15-9.38,28.15-9.38l27.92,9.38Z"/>
    <path class="cls-6" d="M464.55,318.97l2.97-10-27.2-8.14-12.56,45.94-38.22-10.27-12.9,45.91-17.58,62.57-25.59-6.5-4.47,16.65s-5.41-1.62-9.41.82c-4,2.43-6.03,6.9-10.09,20.31-4.07,13.41-8.55,19.91-5.29,24.38l3.26,4.47,27.92,9.38-17.68,48.72s23.59,14.18,40.48,19.19l33.4-17.83,51.9-182.16,10.27,2.33,17.99-63.72-7.2-2.05ZM339.12,505.11l-25.65-7.52s8.27-25.5,9.3-28.41c1.04-2.91,3.79-4.72,9.18-3.89,5.4.83,17.49,4.69,17.49,4.69l-10.32,35.13Z"/>
    <path class="cls-6" d="M556.53,35.33l-4.11,14.39-11.31-3.6-32.88,8.23-14.39,54.46s0,11.31,2.06,19.01c2.05,7.71,12.33,12.85,12.33,12.85l-21.58,70.39,8.73,4.11-55.06-14.78,50.79-183.23,6.84,1.73,5.14-14.9s2.06-2.57,10.79,0c8.74,2.57,8.22,6.17,8.22,6.17l-4.62,13.36,39.05,11.81Z"/>
    <path class="cls-6" d="M376.64,382.41l-17.58,62.57-25.59-6.5s-33.24-15.79-68.68-58.12c-35.44-42.33-43.32-89.59-43.32-89.59l58.41-17.19s11.49,38.85,39.71,70.85c28.22,31.99,57.05,37.98,57.05,37.98Z"/>
    <path class="cls-2" d="M245.77,312.5s5.93,30.67,35.3,61.68,63.88,46.98,63.88,46.98"/>
    <path class="cls-2" d="M259.73,307.38s3.65,26.93,33.02,57.95,59.11,42.62,59.11,42.62"/>
    <path class="cls-2" d="M272.17,301.19s4.04,23.67,33.13,54.95c26.36,28.35,58.84,39.88,51.29,37.35"/>
    <line class="cls-2" x1="463.01" y1="218.51" x2="443.96" y2="289.42"/>
    <line class="cls-2" x1="503.76" y1="12.65" x2="515.93" y2="15.82"/>
    <line class="cls-2" x1="517.48" y1="23.52" x2="497.95" y2="18.89"/>
    <line class="cls-2" x1="482.59" y1="47.9" x2="508.23" y2="54.35"/>
    <polygon class="cls-2" points="357.7 565.67 401.62 407.94 408.5 410.08 421.73 366.82 435.69 370.39 381.51 558.09 357.7 565.67"/>
    <polyline class="cls-2" points="371.45 414.32 387.42 419.08 406.38 352.4 388.92 347.51"/>
    <path class="cls-2" d="M340.23,486.95s-6.49-1.33-7.82-2.99-3.78-4.67-3.78-4.67c0,0-.44,5.1,1.56,7.66s8.9,6.57,8.9,6.57l1.15-6.57Z"/>
    <polyline class="cls-2" points="463.01 138.1 486.02 145.47 469.53 204.06"/>
    <line class="cls-2" x1="471.28" y1="103.37" x2="490.58" y2="109.01"/>
    <line class="cls-2" x1="480.3" y1="96.7" x2="489.83" y2="60.91"/>
  </g>
  <g id="Soldat">
    <line class="cls-9" x1="304.04" y1="798.3" x2="301.39" y2="779.46"/>
    <path class="cls-5" d="M629.48,762.83l-36.51,43.81s-28.16-21.9-46.94-41.72c-18.77-19.82-29.21-30.25-29.21-30.25l23.18-30.25,1.91-1.96c5.22,6.16,12.33,12.83,22.3,20.44,5.47,4.18,12.54,7.65,20.84,10.25l2.7,1.52,41.73,28.16Z"/>
    <path class="cls-5" d="M743.17,734.67s-18.63,23.27-32.19,37.87c-13.56,14.6-41.87,34.1-41.87,34.1l-39.63-43.81,56.84-35.29c3.96-1.4,7.92-2.95,11.88-4.64,11.45-4.9,20.08-11.75,26.55-19.49l.69,1.01,17.73,30.25Z"/>
    <path class="cls-10" d="M416.69,1088.49v-183.8s-23.99,2.09-119.95,14.6c-95.96,12.52-108.48-32.33-113.7-77.18-5.21-44.86,0-179.41,0-179.41,0,0,29.21,2.08,50.07,1.04s50.07-13.56,50.07-13.56l18.21,129.28s64.19-16.63,104.87-27.06,110.56-17.73,110.56-17.73c0,0,10.44,10.43,29.21,30.25,18.78,19.82,46.94,41.72,46.94,41.72l36.51-43.81,39.63,43.81s28.31-19.5,41.87-34.1c13.56-14.6,32.19-37.87,32.19-37.87,0,0,73.01,12.52,110.57,28.16,37.55,15.65,47.98,53.2,62.58,103.27,14.6,50.06,18.77,222.39,18.77,222.39H416.69Z"/>
    <line class="cls-9" x1="416.69" y1="904.69" x2="416.69" y2="859.84"/>
    <line class="cls-9" x1="839.13" y1="1080" x2="839.13" y2="871.31"/>
    <line class="cls-9" x1="607.16" y1="1080" x2="607.16" y2="789.61"/>
    <path class="cls-9" d="M801.17,975.66s2.03,25.85-52.89,26.26c-54.92.41-49.96-26.26-49.96-26.26v-68.32l2.11.55h.02l49.24,19.99,51.49-19.76v67.54Z"/>
    <polygon class="cls-1" points="803.2 875 803.2 905.2 801.18 907.34 801.18 908.12 749.69 927.88 700.45 907.89 700.43 907.89 694.58 905.51 694.58 875 803.2 875"/>
    <polygon class="cls-11" points="803.2 905.2 803.2 907.34 801.18 908.12 801.18 907.34 803.2 905.2"/>
    <path class="cls-9" d="M564.2,976.48s2.03,25.85-52.88,26.26c-54.92.41-49.97-26.26-49.97-26.26v-68.32c1.1.22,1.42.28,1.51.3h.04s49.82,20.24,49.82,20.24l49.93-19.17h0l1.55-.07v67.02Z"/>
    <polygon class="cls-1" points="566.23 875.82 566.23 908.16 562.66 909.53 562.65 909.53 512.72 928.7 462.9 908.47 462.86 908.46 457.62 906.33 457.62 875.82 566.23 875.82"/>
    <path class="cls-8" d="M686.32,727.54l-56.84,35.29-41.73-28.16-2.7-1.52c25.73,8.1,63.25,7.86,101.27-5.61Z"/>
    <path class="cls-8" d="M771.26,604.61c-8.98,20.22-11.23,26.21-16.47,28.45-5.24,2.25-11.62,0-11.62,0,0,0,5.75,41.45-18.42,70.35-6.47,7.74-15.1,14.59-26.55,19.49-3.96,1.69-7.92,3.24-11.88,4.64-38.02,13.47-75.54,13.71-101.27,5.61-8.3-2.6-15.37-6.07-20.84-10.25-9.97-7.61-17.08-14.28-22.3-20.44-7.45-8.8-11.02-16.55-13.5-24.48-4.2-13.47-7.94-45.31-7.94-45.31,0,0-6.74,2.6-13.48,0s-20.21-33.3-19.46-49.02c.74-15.72,4.49-23.21,11.22-26.2,6.74-3,18.07,5.24,18.07,5.24v-35.94s43.49,17.25,108.09,17.25,118.26-17.25,118.26-17.25v36.69s13.87-13.48,21.35-7.49c7.49,5.99,15.73,28.45,6.74,48.66Z"/>
    <path class="cls-9" d="M589.43,673.17s18.46-13.43,40.05-13.43,43.55,13.43,43.55,13.43"/>
    <path class="cls-11" d="M648.01,632.67h-31.73s-.61-10.15,0-22.36,3.66-39.67,3.66-39.67c0,0-21.36,4.27-30.51,0s-19.53-12.81-27.46-14.65-15.26,0-15.26,0"/>
    <path class="cls-11" d="M652.89,570.04s9.76,2.44,20.14,0,18.31-10.37,25.02-11.59,17.09-3.25,17.09-3.25"/>
    <ellipse class="cls-11" cx="684.01" cy="575.87" rx="7.09" ry="4.75"/>
    <ellipse class="cls-11" cx="577.11" cy="575.87" rx="7.09" ry="4.75"/>
    <path class="cls-3" d="M510.37,491.26s-22.81-17.45-27.51-27.51-7.38-26.17,13.76-39.59,66.25-32.88,134.61-32.88,120.03,26.17,133.45,34.22,27.06,26.84,10.51,44.29-24.6,21.47-24.6,21.47l-.67,33.55s-63.07,19.19-120.44,19.19-118.44-20.53-118.44-20.53l-.67-32.21Z"/>
    <path class="cls-11" d="M510.37,491.26s55.69-26.81,116.08-26.81,124.13,26.81,124.13,26.81v26.19s-40.26-19.46-125.48-19.46-114.74,19.46-114.74,19.46v-26.19Z"/>
    <path class="cls-8" d="M256.34,525.7c7.1-5.32,22.49-2.86,43.04.7.66.12,1.33.23,2.01.35,28.81,5.02,22.09,16.15,23.41,35.32,1.32,19.18-7.94,31.74-17.19,43.64-9.26,11.9-24.43,26.96-24.43,26.96v17.51s-29.21,12.52-50.07,13.56-50.07-1.04-50.07-1.04c0,0,1.05-26.58-2.31-37.15-3.37-10.58-15.27-50.91-15.27-66.78s5.95-62.15,33.72-63.47c4.47-.21,8.28.71,11.51,2.44l.28.05c4.86-2.9,9.47-7.96,14.95-9.34,5.48-1.38,10.77-1.71,15.64,1.15,5.01,2.94,9.38,11.13,10.84,16.75,0,0,2.33,8.84,3.94,19.35-2.47,1.83-3.94,4.61-4.27,8.61-.56,6.73,1.85,12.03,5.23,15.96"/>
    <path class="cls-11" d="M257.3,550.27c4.57,5.33,10.9,8.12,13.94,8.5,5.29.66,22.48.66,22.48.66"/>
    <path class="cls-11" d="M210.69,497.74c16.85,9.03,18.24,39.97,18.24,46.26,0,7.5,2.64,22.04-11.24,22.7s-19.63-14.39-20.4-26.7l-.76-12.31"/>
    <path class="cls-11" d="M229.13,559.55s9.92,5.71,22.86,0c2.93-1.3,4.55-4.73,5.31-9.28"/>
    <path class="cls-8" d="M300.06,522.02l-.68,4.38c-20.55-3.56-35.94-6.02-43.04-.7-1.61-10.51-3.94-19.35-3.94-19.35-1.46-5.62-5.83-13.81-10.84-16.75,2.84-6.7,10.12-7.94,17.2-6.28,4.59,1.08,8.56,3.85,11.65,7.45l-.58-2.16c4.06-4,10.34-5.58,15.8-3.95,6.96,2.06,11.77,8.72,13.65,15.73,1.89,7,1.34,14.4.78,21.63Z"/>
    <path class="cls-11" d="M270.41,490.77c1.68,1.96,3.09,4.17,4.2,6.49,3.13,6.57,4.07,13.96,4.47,21.23"/>
    <line class="cls-11" x1="270.41" y1="490.79" x2="270.41" y2="490.77"/>
    <line class="cls-11" x1="299.38" y1="526.41" x2="299.38" y2="526.4"/>
    <path class="cls-7" d="M627.94,845.5c-1.55-4.18-.63-9.18,2.3-12.55,3.41-3.9,9.33-5.32,14.18-3.51s8.38,6.65,8.77,11.81c.19,2.48-.33,5.07-1.82,7.06-5.79,7.76-20.06,6.3-23.44-2.82Z"/>
    <path class="cls-7" d="M626.33,922.61c-.24-3-.06-6.14,1.29-8.83,2.28-4.54,7.88-7.01,12.85-5.96s9,5.34,10.08,10.31c1.52,6.99-3.7,15.32-10.7,17.26-7.92,2.2-12.99-6.1-13.52-12.77Z"/>
    <path class="cls-7" d="M627.49,1011.57c.95-3.32,3.19-6.36,6.33-7.8,4.03-1.85,9.14-.69,12.24,2.48,3.11,3.17,4.2,8.05,3.11,12.35-1.29,5.08-6.72,12.71-12.74,10.97-7.28-2.1-10.9-11.17-8.94-18.01Z"/>
    <path class="cls-11" d="M512.14,910.92c-.85,0-4.26.21-5.07-1.66s-.02-4.17,1.53-5.5,3.69-1.78,5.72-1.66c1.25.07,2.52.35,3.56,1.06s1.8,1.89,1.77,3.14c-.03,1.49-1.17,2.78-2.52,3.44s-4.15,1.18-5,1.18Z"/>
    <path class="cls-11" d="M744.34,907.63c-.16-2.06,1.33-4.02,3.24-4.81,1.88-.78,4.2-.52,5.72.82s2.04,3.78,1.02,5.53-4.55,1.72-5.72,1.63-4.1-1.1-4.26-3.16Z"/>
  </g>
  <g id="AK_Greb" data-name="AK Greb">
    <path class="cls-4" d="M277.97,560.75c-16.92,4.61-61.54,14.13-69.45,11.88-4.09-1.17-8.83-3.97-8.06-13.19"/>
  </g>
  <g id="Finger_Overlay" data-name="Finger Overlay">
    <path class="cls-11" d="M196.53,527.19c1.19,6.23.28,13.88,1.77,20.05s3.69,12.03,9.05,15.42,15.35,2.09,19.17-2.97c3.02-3.99,2.74-9.5,2.18-14.47-1.4-12.24-3.75-24.38-7.03-36.25"/>
    <path class="cls-11" d="M257.68,553.37c.45,2.28-3.93,4.62-5.87,5.91s-4.31,1.7-6.63,1.88c-5.5.43-8.08-.29-13.29-2.09"/>
    <path class="cls-8" d="M293.72,559.43c-7.96.91-32.16,0-36.04-6.06"/>
  </g>
</svg>