<?xml version="1.0" encoding="UTF-8"?>
<svg id="SOLDAT" xmlns="http://www.w3.org/2000/svg" viewBox="0 0 1280 1024">
  <defs>
    <style>
      .cls-1 {
        fill: #ff3f34;
      }

      .cls-2 {
        fill: #3c4922;
      }

      .cls-3 {
        fill: #556b2f;
      }

      .cls-4 {
        fill: #497684;
      }

      .cls-5 {
        fill: #ffc334;
      }

      .cls-6 {
        fill: #fff;
      }
    </style>
  </defs>
  <rect class="cls-4" width="1280" height="1024"/>
  <path class="cls-2" d="M876.49,490.65c0,11.79-64.32,21.35-143.66,21.35s-130.86-9.56-130.86-21.35,51.51-21.35,130.86-21.35,143.66,9.56,143.66,21.35Z"/>
  <ellipse cx="739.23" cy="495.69" rx="110.74" ry="132.94"/>
  <ellipse cx="739.23" cy="699.38" rx="172.64" ry="52"/>
  <polygon points="566.59 699.38 610.23 971.12 868.24 971.12 911.88 699.38 566.59 699.38"/>
  <path d="M616.28,749.42c1.55,14.75-2.25,29.45-9.22,41.76-3.1,5.53-7.11,10.23-10.92,15.11-19.13,24.33-40.38,46.81-63.01,67.91-36.95,33.29-70.92,70.21-112.44,98.04,0,0-16.52,10.66-16.52,10.66l-23.19-13.31c-5.24-3.06-9.6-6.94-13.84-11.08-8.21-8.04-14.46-17.47-20.59-27.08-9.26-14.28-18.13-28.79-26.73-43.5-16.9-29.05-33.69-59.87-51.44-88.4-8.93-14.48-18.08-28.83-28.89-42-3.62-4.38-7.33-8.7-11.47-12.72-9.27-9.01-9.48-23.83-.47-33.1,11.23-11.91,31.89-8.11,38.22,6.91,4.69,10.45,10.65,20.11,16.97,29.59,25.74,37.11,56.43,71.53,84.98,106.49,10.77,13.2,21.26,26.59,31.39,40.26,8.64,11.34,16.79,23.19,21.39,36.86.94,2.79,1.8,5.65,2.31,8.74l-39.7-2.65c11.89-22.05,26.53-42.47,41.76-62.22,23.23-28.94,44.95-59.23,69.13-87.4,12.12-14.03,24.98-27.4,38.41-40.19,4.51-4.24,8.83-8.66,14.06-12.25,11.6-8.07,25.92-13.14,40.75-12.98,15.14.35,27.4,11.89,29.06,26.53h0Z"/>
  <path d="M855.77,694.93c11.68-6.14,25.33-8.06,37.71-5.77,5.38.96,10.23,3.02,15.2,4.84,14.81,5.58,29.33,11.91,43.4,19.14,28.15,14.58,54.81,32.04,82.36,47.68,9.1,5.4,18.08,11.06,26.85,17.18,8.85,6.19,17.48,12.59,25.56,19.9,0,0,14.35,19.75,14.35,19.75,8.68,12.53,10.95,27.79,12.08,42.58,4.65,48.45,2.65,97.75,7,146.22.84,9.71,2.18,19.35,4.29,28.87,1.09,4.76,2.3,9.51,4.02,14.19,4.49,12.21-1.78,25.75-13.99,30.24-12.21,4.49-25.75-1.78-30.24-13.99-1.25-3.39-1.65-7-1.34-10.37.48-4.97.44-9.86.29-14.75-.5-14.63-3.03-29.05-5.8-43.39-9.05-47.78-23.55-95-29.8-143.28-.84-9.96-.5-20.24,3.01-29.81,0,0,14.35,19.75,14.35,19.75-21.22-3.35-41.8-9.79-61.9-17.02-44.36-16.86-90.42-30.39-131.41-54.9-4.56-2.68-9.23-5.13-13.38-8.68-4.17-3.51-7.99-7.75-11.33-13-3.84-6.3-6.48-12.1-8.11-19.82-3.01-14.61,4.26-28.96,16.84-35.57h0Z"/>
  <path d="M774.01,594.73c.49,7.54-.56,14.97-2.63,22.29-1.03,3.72-1.82,7.43-1.86,11.15-.24,7.61,2.03,15.01,4.14,22.29,2.86,11.14,5.14,22.29,8.07,33.44,5.95,23.47-8.26,47.32-31.73,53.27s-47.32-8.26-53.27-31.73c-1.84-7.26-1.69-14.74,0-21.53,2.93-11.15,5.21-22.29,8.07-33.44,2.11-7.28,4.38-14.69,4.14-22.29-.04-3.72-.83-7.43-1.86-11.15-2.07-7.32-3.11-14.75-2.63-22.29,4.71-42.68,65.01-42.36,69.56,0h0Z"/>
  <ellipse cx="884.99" cy="705.26" rx="40.55" ry="65.94" transform="translate(-53.66 1337.35) rotate(-72.51)"/>
  <ellipse cx="577.01" cy="720.41" rx="65.94" ry="40.55" transform="translate(-329.66 547.53) rotate(-40.51)"/>
  <path d="M316.03,983.15l98.76-23.95-65.63-240.83,22.14-37.67-83.82-196.77,5.39-9.64-71.71-158.83-9.64-5.69-27.91-68.16-35.97-16.13-23.29-53.68,30.01-31.55-5.41-12.75-34.22,13.73-4.92-9.96-15.82,5.45,4.24,12.85-6.27,3.88,76.09,180.11-3.54,5.28,45.31,140.34,7.42.98,21.05,55.07s-46.92,11.06-72.92,3.62c-26-7.44-74.55-31.89-74.55-31.89l-32.76,48.11s48.6,35.56,102.42,42.51c53.82,6.95,96.74-2.26,96.74-2.26l7.97,20.45s-20.06,5.6-26.56,12.09c-6.5,6.5,11.06,43.91,15.35,46.84,4.28,2.92,9.18,4.84,9.18,4.84l-55.28,65.75,22.9,31.02,54.42-49.13,23.45-2.12,4.91,22.96,2.47,235.11Z"/>
  <rect x="610.23" y="971.12" width="258.08" height="51.69"/>
  <path class="cls-3" d="M876.49,490.65c-38.35-13.19-85.85-20.99-137.26-20.99s-98.89,7.8-137.26,20.99c2.92-96.18,31.68-172.94,137.26-172.94s134.34,76.76,137.26,172.94Z"/>
  <polygon class="cls-1" points="93.99 136.73 58.06 117.83 79.86 113.38 76.03 75.96 99.46 106.35 114.61 89.33 109.81 131.28 93.99 136.73"/>
  <polygon class="cls-5" points="95.05 132.07 73.33 120.65 86.51 117.96 84.19 95.35 98.36 113.71 107.51 103.43 104.61 128.78 95.05 132.07"/>
  <path class="cls-6" d="M714.82,510.5c.02.44,0,.89-.09,1.34-.8,4.53-10.06,8.39-22.44,8.47-12.16.08-20.01-5.93-20.99-12.64-.21-1.41-.13-2.76.27-3.99,7.65,1.93,16.98,3.72,27.11,5.09,5.64.76,11.07,1.34,16.14,1.73Z"/>
  <path class="cls-6" d="M763.65,510.5c-.02.44,0,.89.09,1.34.8,4.53,10.06,8.39,22.44,8.47,12.16.08,20.01-5.93,20.99-12.64.21-1.41.13-2.76-.27-3.99-7.65,1.93-16.98,3.72-27.11,5.09-5.64.76-11.07,1.34-16.14,1.73Z"/>
</svg>